<svg id="dribbble" xmlns="http://www.w3.org/2000/svg" viewBox="0 0 22 20" enable-background="new 0 0 22 20" aria-hidden="true" className="fill-current">
  <path fill-rule="evenodd" clip-rule="evenodd" d="M20.816 8.009c-.131-.636-.328-1.262-.584-1.859-.252-.587-.562-1.152-.924-1.681-.359-.523-.771-1.017-1.223-1.463-.455-.448-.953-.854-1.482-1.208-.535-.358-1.109-.664-1.703-.913-.605-.252-1.238-.446-1.883-.575-.66-.135-1.339-.202-2.017-.202-.68 0-1.358.067-2.019.202-.642.128-1.276.323-1.881.575-.594.249-1.167.554-1.703.913-.531.354-1.029.76-1.482 1.208-.453.446-.864.939-1.223 1.463-.362.528-.672 1.093-.923 1.68-.256.598-.454 1.224-.585 1.86-.135.65-.203 1.32-.203 1.99 0 .672.068 1.343.203 1.993.132.637.329 1.262.585 1.859.251.586.562 1.152.924 1.682.358.521.77 1.016 1.223 1.463s.951.852 1.482 1.207c.535.355 1.108.664 1.702.91.605.254 1.239.447 1.883.578.66.135 1.339.201 2.019.201.678 0 1.356-.066 2.017-.201.645-.131 1.277-.324 1.883-.578.594-.246 1.168-.555 1.703-.91.529-.355 1.027-.76 1.482-1.207.451-.447.863-.941 1.223-1.463.361-.529.672-1.096.924-1.682.256-.598.453-1.223.584-1.859.135-.65.203-1.321.203-1.993-.001-.67-.07-1.34-.205-1.99zm-1.261 1.907c-.125-.026-3.02-.642-5.961-.276l-.184-.437c-.178-.413-.371-.823-.568-1.226 3.379-1.361 4.75-3.32 4.768-3.344 1.199 1.44 1.925 3.278 1.945 5.283zm-2.903-6.257c-.021.033-1.24 1.865-4.471 3.06-1.461-2.654-3.069-4.761-3.198-4.929.647-.154 1.322-.238 2.018-.238 2.165 0 4.144.798 5.651 2.107zm-7.701-1.862l-.002.002-.025.005.027-.007zm-1.601.561c.113.151 1.696 2.27 3.177 4.868-4.108 1.078-7.674 1.036-7.9 1.033.556-2.617 2.336-4.786 4.723-5.901zm-4.907 7.641l.007-.267c.151.004 4.379.099 8.785-1.203.245.474.48.955.694 1.436l-.337.101c-4.618 1.474-6.961 5.575-6.961 5.575l.004.004c-1.363-1.497-2.192-3.475-2.192-5.646zm8.558 8.45c-2.072 0-3.971-.729-5.451-1.938l.191.148s1.641-3.533 6.716-5.277l.057-.018c1.203 3.088 1.701 5.676 1.826 6.414-1.026.433-2.154.671-3.339.671zm4.78-1.441c-.086-.512-.543-2.99-1.666-6.035 2.764-.436 5.156.311 5.334.369-.381 2.353-1.746 4.385-3.668 5.666z"></path>
</svg>
