<svg id="github" xmlns="http://www.w3.org/2000/svg" viewBox="0 0 22 20" enable-background="new 0 0 22 20" aria-hidden="true" className="fill-current">
  <path fill-rule="evenodd" clip-rule="evenodd" d="M11 .205c-5.617 0-10.172 4.496-10.172 10.043 0 4.438 2.914 8.201 6.957 9.529.509.092.694-.219.694-.484l-.014-1.709c-2.83.607-3.427-1.346-3.427-1.346-.462-1.16-1.128-1.468-1.128-1.468-.924-.623.069-.609.069-.609 1.021.069 1.558 1.032 1.558 1.032.908 1.535 2.381 1.092 2.961.836.092-.65.355-1.092.646-1.344-2.259-.253-4.634-1.115-4.634-4.962 0-1.097.396-1.993 1.048-2.695-.104-.254-.454-1.274.1-2.658 0 0 .854-.27 2.797 1.03.812-.223 1.682-.335 2.547-.339.863.004 1.733.116 2.546.339 1.942-1.3 2.795-1.03 2.795-1.03.555 1.384.206 2.404.102 2.658.651.702 1.045 1.599 1.045 2.695 0 3.857-2.378 4.707-4.645 4.955.365.311.691.924.691 1.859 0 1.344-.013 2.426-.013 2.756 0 .268.184.58.699.482 4.038-1.33 6.95-5.092 6.95-9.527 0-5.547-4.555-10.043-10.172-10.043z"></path>
</svg>
