<svg id="linkedin" xmlns="http://www.w3.org/2000/svg" viewBox="0 0 16 16" enable-background="new 0 0 16 16" aria-hidden="true" className="fill-current">
  <path d="M.818 5.542h3.08v9.778h-3.08v-9.778zm1.54-4.861c.984 0 1.784.79 1.784 1.763s-.8 1.762-1.784 1.762c-.987 0-1.786-.79-1.786-1.763s.798-1.762 1.786-1.762"></path>
  <path d="M5.829 5.542h2.952v1.336h.041c.41-.768 1.416-1.579 2.914-1.579 3.115 0 3.691 2.024 3.691 4.658v5.362h-3.077v-4.755c0-1.135-.02-2.593-1.6-2.593-1.602 0-1.846 1.235-1.846 2.512v4.836h-3.075v-9.777z"></path>
</svg>
