<svg id="twitter" xmlns="http://www.w3.org/2000/svg" viewBox="0 0 26 20" enable-background="new 0 0 26 20" aria-hidden="true" className="fill-current">
  <path fill-rule="evenodd" clip-rule="evenodd" d="M17.408.198c1.945-.034 2.979.665 3.967 1.554.84-.07 1.93-.533 2.572-.855l.625-.337c-.367.978-.865 1.744-1.629 2.326-.17.128-.338.304-.551.385v.013c1.09-.011 1.986-.496 2.84-.759v.012c-.447.703-1.055 1.417-1.701 1.929l-.783.614c.014 1.139-.018 2.226-.232 3.182-1.254 5.563-4.576 9.339-9.833 10.958-1.889.58-4.939.818-7.103.289-1.072-.264-2.042-.561-2.951-.953-.505-.217-.973-.453-1.42-.723l-.441-.266c.488.014 1.059.146 1.604.061.493-.078.978-.059 1.433-.156 1.135-.246 2.144-.572 3.012-1.074.422-.242 1.061-.527 1.359-.879-.563.01-1.075-.119-1.494-.266-1.623-.566-2.568-1.607-3.184-3.17.492.053 1.909.18 2.241-.096-.619-.033-1.215-.389-1.641-.65-1.307-.809-2.372-2.161-2.363-4.244l.514.241c.328.137.662.21 1.054.289.165.034.496.13.686.061h-.024c-.254-.292-.666-.485-.92-.797-.838-1.029-1.623-2.612-1.126-4.495.126-.479.325-.901.538-1.29l.025.012c.097.202.314.35.453.519.428.523.955.995 1.493 1.41 1.833 1.415 3.483 2.285 6.135 2.929.673.164 1.45.288 2.253.289-.225-.648-.152-1.698.025-2.326.445-1.578 1.416-2.717 2.84-3.326.34-.146.719-.252 1.115-.338l.612-.073z"></path>
</svg>
