<?xml version="1.0" encoding="UTF-8"?>
<svg class="css-1j8o68f" viewBox="0 0 370.02 64.516" xmlns="http://www.w3.org/2000/svg">
<g transform="matrix(.60918 0 0 .60918 .00060666 1.7706)" fill="#132a3a" featurekey="7KWit6-0">
<path transform="translate(0 25)" d="m74.313 0-28.094 78h8.469l28.094-78h-8.469zm-36.313 11.25-2.188 1.406-34 22-1.813 1.156v4.25l1.688 1.219 34 24 2.313 1.594v-9.781l-26.844-18.969 26.844-17.375v-9.5zm52 0v9.5l26.844 17.375-26.844 18.969v9.781l2.313-1.594 34-24 1.688-1.219v-4.25l-1.813-1.156-34-22-2.188-1.406z" xmlns="http://www.w3.org/2000/svg"/>
</g>
<g transform="matrix(1.5948 0 0 1.5948 94.364 19.442)" fill="#fff" featurekey="ewgXDI-0">
<path d="m13.32 6.8c0.1 0 0.18 0.08 0.18 0.18v12.84c0 0.1-0.08 0.18-0.18 0.18h-2.18c-0.06 0-0.16-0.08-0.16-0.18v-7.4l-2.2 7.46c-0.04 0.08-0.08 0.12-0.16 0.12h-1.58c-0.06 0-0.14-0.04-0.16-0.12l-2.06-7.6v7.54c0 0.1-0.08 0.18-0.18 0.18h-2.22c-0.08 0-0.14-0.08-0.14-0.18v-12.84c0-0.1 0.06-0.18 0.14-0.18h2.8c0.08 0 0.16 0.06 0.18 0.12l2.42 8.1 2.66-8.1c0-0.06 0.06-0.12 0.14-0.12h2.7zm-1.24 11.98c0 0.14 0.26 0.18 0.26 0v-10.78c0-0.04-0.06-0.1-0.12-0.1h-0.94c-0.08 0-0.1 0.06-0.14 0.1l-3.32 9.9-3.3-9.92c0-0.06-0.04-0.08-0.1-0.08h-0.98c-0.06 0-0.12 0.06-0.12 0.12v10.76c0 0.14 0.26 0.18 0.26 0v-10.62h0.74l3.38 10.16c0.08 0.14 0.14 0.1 0.24 0l3.4-10.16h0.74v10.62zm6.0635 1.22c-0.1 0-0.16-0.08-0.16-0.18v-12.84c0-0.1 0.06-0.18 0.16-0.18h2.28c0.1 0 0.18 0.08 0.18 0.18v12.84c0 0.1-0.08 0.18-0.18 0.18h-2.28zm1.04-12v10.78c0 0.18 0.22 0.18 0.22 0v-10.78c0-0.14-0.22-0.14-0.22 0zm8.2835 1.3h-2.84c-0.1 0-0.18-0.08-0.18-0.18v-2.14c0-0.1 0.08-0.18 0.18-0.18h8.34c0.1 0 0.18 0.08 0.18 0.18v2.14c0 0.1-0.08 0.18-0.18 0.18h-2.84v10.52c0 0.1-0.08 0.18-0.18 0.18h-2.3c-0.1 0-0.18-0.08-0.18-0.18v-10.52zm4.28-1.4h-6.04c-0.14 0-0.14 0.26 0 0.26h2.96v10.6c0 0.14 0.26 0.14 0.26 0v-10.6h2.82c0.2 0 0.18-0.26 0-0.26zm11.584 7.48v-0.62c0-0.1 0.08-0.18 0.18-0.18h2.28c0.1 0 0.18 0.08 0.18 0.18v1.26c0 2.94-1.58 4.18-4.56 4.18-2.78 0-4.6-1.1-4.6-4.18v-5.26c0-2.96 1.62-4.14 4.6-4.14 2.82 0 4.56 1.08 4.56 4.14v0.42c0 0.1-0.08 0.18-0.18 0.18h-2.3c-0.1 0-0.18-0.08-0.18-0.18v-0.32c0-1.1-0.82-1.56-1.8-1.56h-0.24c-0.66 0-1.1 0.18-1.4 0.58-0.28 0.38-0.38 0.88-0.38 1.54v3.96c0 1.74 0.98 2.12 1.78 2.12h0.24c1.26 0 1.78-0.84 1.82-2.12zm-1.96-7.52c-2.14 0-3.38 0.76-3.38 3.2v4.82c0 2.22 1.14 3.04 3.38 3.04 2.1 0 3.36-0.76 3.36-3.06 0-0.16-0.24-0.16-0.24 0 0 2.02-1.1 2.84-3.12 2.84-1.96 0-3.16-0.68-3.16-2.82v-4.82c0-2.08 0.98-2.98 3.16-2.98 2.84 0 2.94 1.8 2.94 2 0 0.18 0.28 0.2 0.28 0 0-1.66-1.68-2.22-3.22-2.22zm14.964 4.14v-5.02c0-0.1 0.08-0.18 0.18-0.18h2.28c0.1 0 0.18 0.08 0.18 0.18v12.84c0 0.1-0.08 0.18-0.18 0.18h-2.28c-0.1 0-0.18-0.08-0.18-0.18v-5.32h-3.24v5.32c0 0.1-0.08 0.18-0.18 0.18h-2.28c-0.1 0-0.16-0.08-0.16-0.18v-12.84c0-0.1 0.06-0.18 0.16-0.18h2.28c0.1 0 0.18 0.08 0.18 0.18v5.02h3.24zm-4.7 6.76c0 0.16 0.26 0.14 0.26 0v-5.36h5.62v5.36c0 0.14 0.22 0.16 0.22 0v-10.76c0-0.14-0.22-0.18-0.22 0v5.12h-5.62v-5.12c0-0.14-0.26-0.14-0.26 0v10.76zm12.364 1.24c-0.1 0-0.16-0.08-0.16-0.18v-12.84c0-0.1 0.06-0.18 0.16-0.18h6.8c0.1 0 0.18 0.08 0.18 0.18v2.14c0 0.1-0.08 0.18-0.18 0.18h-4.32v2.72h3.36c0.1 0 0.16 0.08 0.16 0.18v2.18c0 0.1-0.06 0.18-0.16 0.18h-3.36v2.94h4.32c0.1 0 0.18 0.08 0.18 0.18v2.14c0 0.1-0.08 0.18-0.18 0.18h-6.8zm1-11.94v10.64c0 0.12 0.08 0.16 0.16 0.16h4.6c0.18 0 0.14-0.24 0-0.24h-4.5v-5.22h3.68c0.12 0 0.12-0.28 0-0.28h-3.68v-4.96h4.5c0.14 0 0.18-0.26 0-0.26h-4.6c-0.08 0-0.16 0.06-0.16 0.16zm12.923-1.26c0.1 0 0.18 0.08 0.18 0.18v10.5h4.32c0.1 0 0.18 0.08 0.18 0.18v2.16c0 0.1-0.08 0.18-0.18 0.18h-6.78c-0.1 0-0.16-0.08-0.16-0.18v-12.84c0-0.1 0.06-0.18 0.16-0.18h2.28zm-1.24 1.22v10.76c0 0.04 0.04 0.1 0.12 0.1h4.62c0.16 0 0.16-0.26 0-0.26h-4.52v-10.6c0-0.14-0.22-0.16-0.22 0zm19.647-0.02v10.78c0 0.14 0.24 0.18 0.24 0v-5.38h3.68c0.2 0 0.2-0.28 0-0.28h-3.68v-4.96h4.48c0.14 0 0.18-0.26 0-0.26h-4.6c-0.06 0-0.12 0.02-0.12 0.1zm1.26 12h-2.3c-0.1 0-0.16-0.08-0.16-0.18v-12.84c0-0.1 0.06-0.18 0.16-0.18h6.8c0.1 0 0.18 0.08 0.18 0.18v2.14c0 0.1-0.08 0.18-0.18 0.18h-4.32v2.72h3.36c0.1 0 0.16 0.08 0.16 0.18v2.18c0 0.1-0.06 0.18-0.16 0.18h-3.36v5.26c0 0.1-0.08 0.18-0.18 0.18zm12.944-13.38c1.72 0 2.92 0.38 3.68 1.2 0.6 0.66 0.88 1.6 0.88 2.94v5.26c0 1.38-0.28 2.34-0.88 2.98-0.78 0.8-1.96 1.2-3.68 1.2-1.78 0-2.94-0.4-3.7-1.2-0.58-0.64-0.9-1.6-0.9-2.98v-5.26c0-1.34 0.32-2.28 0.9-2.96 0.78-0.8 1.96-1.18 3.7-1.18zm1.9 8.8v-4c0-1.76-0.94-2.12-1.8-2.12h-0.24c-1.28 0-1.78 0.82-1.78 2.12v4c0 1.76 0.94 2.14 1.78 2.14h0.24c1.28 0 1.78-0.86 1.8-2.14zm-5.24-4.52v4.96c0 0.94 0.24 1.72 0.8 2.3 0.52 0.52 1.32 0.8 2.3 0.8h0.52c1.88 0 3.1-1.2 3.1-3.1v-4.96c0-2.04-1.08-3.14-3.1-3.14h-0.52c-2.04 0-3.1 1.1-3.1 3.14zm3.62 7.8h-0.52c-0.94 0-1.64-0.24-2.14-0.74s-0.76-1.2-0.76-2.1v-4.96c0-1.9 1.02-2.9 2.9-2.9h0.52c1.9 0 2.84 0.98 2.84 2.9v4.96c0 0.84-0.26 1.6-0.8 2.12-0.52 0.44-1.22 0.72-2.04 0.72zm11.344-11.9c0.1 0 0.18 0.08 0.18 0.18v10.5h4.32c0.1 0 0.18 0.08 0.18 0.18v2.16c0 0.1-0.08 0.18-0.18 0.18h-6.78c-0.1 0-0.16-0.08-0.16-0.18v-12.84c0-0.1 0.06-0.18 0.16-0.18h2.28zm-1.24 1.22v10.76c0 0.04 0.04 0.1 0.12 0.1h4.62c0.16 0 0.16-0.26 0-0.26h-4.52v-10.6c0-0.14-0.22-0.16-0.22 0zm12.284-1.22c0.1 0 0.18 0.08 0.18 0.18v10.5h4.32c0.1 0 0.18 0.08 0.18 0.18v2.16c0 0.1-0.08 0.18-0.18 0.18h-6.78c-0.1 0-0.16-0.08-0.16-0.18v-12.84c0-0.1 0.06-0.18 0.16-0.18h2.28zm-1.24 1.22v10.76c0 0.04 0.04 0.1 0.12 0.1h4.62c0.16 0 0.16-0.26 0-0.26h-4.52v-10.6c0-0.14-0.22-0.16-0.22 0zm10.003 11.98c-0.1 0-0.16-0.08-0.16-0.18v-12.84c0-0.1 0.06-0.18 0.16-0.18h6.8c0.1 0 0.18 0.08 0.18 0.18v2.14c0 0.1-0.08 0.18-0.18 0.18h-4.32v2.72h3.36c0.1 0 0.16 0.08 0.16 0.18v2.18c0 0.1-0.06 0.18-0.16 0.18h-3.36v2.94h4.32c0.1 0 0.18 0.08 0.18 0.18v2.14c0 0.1-0.08 0.18-0.18 0.18h-6.8zm1-11.94v10.64c0 0.12 0.08 0.16 0.16 0.16h4.6c0.18 0 0.14-0.24 0-0.24h-4.5v-5.22h3.68c0.12 0 0.12-0.28 0-0.28h-3.68v-4.96h4.5c0.14 0 0.18-0.26 0-0.26h-4.6c-0.08 0-0.16 0.06-0.16 0.16zm12.543 1.24h-2.84c-0.1 0-0.18-0.08-0.18-0.18v-2.14c0-0.1 0.08-0.18 0.18-0.18h8.34c0.1 0 0.18 0.08 0.18 0.18v2.14c0 0.1-0.08 0.18-0.18 0.18h-2.84v10.52c0 0.1-0.08 0.18-0.18 0.18h-2.3c-0.1 0-0.18-0.08-0.18-0.18v-10.52zm4.28-1.4h-6.04c-0.14 0-0.14 0.26 0 0.26h2.96v10.6c0 0.14 0.26 0.14 0.26 0v-10.6h2.82c0.2 0 0.18-0.26 0-0.26zm7.3835 1.4h-2.84c-0.1 0-0.18-0.08-0.18-0.18v-2.14c0-0.1 0.08-0.18 0.18-0.18h8.34c0.1 0 0.18 0.08 0.18 0.18v2.14c0 0.1-0.08 0.18-0.18 0.18h-2.84v10.52c0 0.1-0.08 0.18-0.18 0.18h-2.3c-0.1 0-0.18-0.08-0.18-0.18v-10.52zm4.28-1.4h-6.04c-0.14 0-0.14 0.26 0 0.26h2.96v10.6c0 0.14 0.26 0.14 0.26 0v-10.6h2.82c0.2 0 0.18-0.26 0-0.26z"/>
</g>
</svg>
