<?xml version="1.0" standalone="no"?>
<!DOCTYPE svg PUBLIC "-//W3C//DTD SVG 20010904//EN"
 "http://www.w3.org/TR/2001/REC-SVG-20010904/DTD/svg10.dtd">
<svg version="1.0" xmlns="http://www.w3.org/2000/svg"
 width="700.000000pt" height="700.000000pt" viewBox="0 0 700.000000 700.000000"
 preserveAspectRatio="xMidYMid meet">
<metadata>
Created by potrace 1.14, written by Peter Selinger 2001-2017
</metadata>
<g transform="translate(0.000000,700.000000) scale(0.100000,-0.100000)"
fill="#000000" stroke="none">
<path d="M4044 5656 c-2 -6 -17 -49 -35 -96 -17 -47 -41 -114 -54 -150 -50
-142 -126 -354 -188 -525 -36 -99 -109 -301 -162 -450 -53 -148 -103 -287
-111 -307 -33 -88 -45 -121 -99 -273 -31 -88 -74 -207 -95 -265 -40 -111 -188
-521 -272 -755 -27 -77 -82 -228 -120 -335 -39 -107 -90 -249 -114 -315 -24
-66 -63 -176 -88 -245 -25 -69 -70 -192 -99 -275 l-54 -150 220 -3 c121 -1
224 1 228 5 4 5 119 316 254 693 136 377 265 735 287 795 22 61 43 121 48 135
5 14 27 77 50 140 23 63 64 176 90 250 27 74 155 430 285 790 130 360 241 666
245 680 5 14 36 102 70 195 34 94 86 238 115 322 l54 152 -225 -1 c-154 -1
-227 -5 -230 -12z"/>
<path d="M1972 4977 c-78 -50 -227 -147 -330 -213 -103 -67 -387 -251 -632
-409 -245 -159 -482 -312 -527 -341 -46 -30 -120 -78 -165 -108 -46 -29 -116
-74 -156 -100 -68 -43 -72 -48 -73 -83 -2 -66 2 -187 7 -195 4 -5 163 -119
429 -306 28 -20 127 -89 220 -155 94 -67 298 -211 455 -321 157 -111 295 -208
306 -216 12 -8 50 -35 85 -60 35 -24 69 -48 74 -53 23 -20 437 -307 443 -307
11 0 7 509 -4 519 -8 8 -350 251 -559 397 -397 278 -849 602 -852 611 -2 6 4
13 14 17 10 3 57 32 105 64 48 31 181 117 295 191 303 196 488 316 818 530 94
61 174 112 179 114 5 2 9 119 10 260 0 141 1 257 1 257 0 0 -64 -42 -143 -93z"/>
<path d="M4887 5052 c-9 -18 -1 -496 8 -499 6 -2 82 -51 170 -108 88 -57 196
-127 240 -155 44 -28 134 -86 200 -130 66 -43 181 -118 255 -165 337 -215 545
-354 543 -361 -2 -9 -128 -98 -1013 -723 l-405 -286 0 -258 c0 -141 3 -257 6
-257 6 0 221 150 584 407 88 63 198 140 245 173 83 57 577 406 755 533 50 35
168 119 263 186 l173 122 -3 116 -3 115 -120 79 c-66 43 -127 82 -135 86 -15
8 -94 59 -235 152 -38 25 -74 48 -80 51 -5 3 -57 36 -115 74 -58 38 -136 89
-175 114 -38 25 -133 87 -210 137 -197 128 -462 298 -482 310 -10 6 -20 12
-23 15 -3 3 -43 30 -90 60 -47 29 -137 88 -200 129 -122 81 -147 94 -153 83z"/>
</g>
</svg>
